<?xml version="1.0" encoding="UTF-8"?>
<svg width="66px" height="66px" viewBox="0 0 66 66" version="1.1" xmlns="http://www.w3.org/2000/svg" xmlns:xlink="http://www.w3.org/1999/xlink">
    <!-- Generator: Sketch 43.2 (39069) - http://www.bohemiancoding.com/sketch -->
    <title>Group</title>
    <desc>Created with Sketch.</desc>
    <defs></defs>
    <g id="Page-1" stroke="none" stroke-width="1" fill="none" fill-rule="evenodd">
        <g id="Group" fill-rule="nonzero" fill="#FFFFFF">
            <path d="M0.97023,51.29467 L0.97023,54.92944 C0.97133,56.03355 1.86612,56.92834 2.97023,56.92944 L24.02748,56.92944 L24.02028,62.92844 L20.80373,62.92844 L20.80373,64.92844 L41.01955,64.92844 L41.01955,62.92844 L41.00124,62.92844 L40.9883,55.09344 L40.97023,55.09344 L40.97023,54.92944 L2.97023,54.92944 L2.97023,51.30035 L40.9673,51.40747 L40.97316,49.40747 L10.01363,49.32019 L10.05948,17.56762 L10.06204,17.56762 L10.06204,15.77935 L10.08059,2.92016 L54.10989,2.93871 L54.04007,32.92601 L56.04007,32.93089 L56.07596,17.56761 L61.96976,17.56761 L61.96976,32.93188 L63.96976,32.93188 L63.96976,17.56762 C63.96865,16.46351 63.07387,15.56872 61.96976,15.56762 L56.08058,15.56762 L56.11476,0.93969 L8.08348,0.91919 L8.0623,15.56763 L2.9702,15.56763 C1.86609,15.56873 0.9713,16.46352 0.9702,17.56763 L0.9702,50.29467 L0.96727,51.29467 L0.97023,51.29467 Z M26.02023,62.92846 L26.02743,56.92946 L38.99135,56.92946 L39.00124,62.92846 L26.02023,62.92846 Z M8.05948,17.56762 L8.01364,49.31451 L2.97023,49.30024 L2.97023,17.56762 L8.05948,17.56762 Z" id="Shape"></path>
            <rect id="Rectangle-path" x="12.08449" y="8.92944" width="40.0254" height="2"></rect>
            <circle id="Oval" cx="12.98146" cy="5.92993" r="1"></circle>
            <circle id="Oval" cx="16.98146" cy="5.92993" r="1"></circle>
            <circle id="Oval" cx="20.98146" cy="5.92993" r="1"></circle>
            <rect id="Rectangle-path" x="24.92091" y="4.92944" width="27.03955" height="2"></rect>
            <path d="M61.05373,38.88794 L47.02199,38.88794 L47.02199,44.97094 L61.05373,44.97094 L61.05373,38.88794 Z M59.05373,42.97094 L49.02199,42.97094 L49.02199,40.88794 L59.05374,40.88794 L59.05374,42.97094 L59.05373,42.97094 Z" id="Shape"></path>
            <path d="M61.05373,46.92944 L47.02199,46.92944 L47.02199,57.01538 L61.05373,57.01538 L61.05373,46.92944 Z M59.05373,55.01538 L49.02199,55.01538 L49.02199,48.92944 L59.05374,48.92944 L59.05374,55.01538 L59.05373,55.01538 Z" id="Shape"></path>
            <path d="M54.09328,58.88794 L53.96974,58.88794 C53.41746,58.88794 52.96974,59.33566 52.96974,59.88794 C52.96974,60.44022 53.41746,60.88794 53.96974,60.88794 L54.09328,60.88794 C54.64556,60.88794 55.09328,60.44022 55.09328,59.88794 C55.09328,59.33566 54.64556,58.88794 54.09328,58.88794 Z" id="Shape"></path>
            <path d="M30.96925,12.92944 L12.96925,12.92944 L12.96925,22.92944 L30.96925,22.92944 L30.96925,12.92944 Z M28.96925,20.92944 L14.96925,20.92944 L14.96925,14.92944 L28.96925,14.92944 L28.96925,20.92944 Z" id="Shape"></path>
            <path d="M50.96925,22.92944 L50.96925,12.92944 L32.96925,12.92944 L32.96925,22.92944 L50.96925,22.92944 Z M34.96925,14.92944 L48.96925,14.92944 L48.96925,20.92944 L34.96925,20.92944 L34.96925,14.92944 Z" id="Shape"></path>
            <path d="M30.96925,24.93676 L12.96925,24.93676 L12.96925,34.93676 L30.96925,34.93676 L30.96925,24.93676 Z M28.96925,32.93676 L14.96925,32.93676 L14.96925,26.93676 L28.96925,26.93676 L28.96925,32.93676 Z" id="Shape"></path>
            <polygon id="Shape" points="48.96948 26.93724 48.96948 32.92824 50.96948 32.92824 50.96948 24.93724 32.96948 24.93724 32.96948 34.93724 40.80148 34.93724 40.80148 32.93724 34.96948 32.93724 34.96948 26.93724"></polygon>
            <path d="M12.96925,46.94409 L30.96925,46.94409 L30.96925,36.94409 L12.96925,36.94409 L12.96925,46.94409 L12.96925,46.94409 Z M14.96925,38.94409 L28.96925,38.94409 L28.96925,44.94409 L14.96925,44.94409 L14.96925,38.94409 L14.96925,38.94409 Z" id="Shape"></path>
            <polygon id="Shape" points="40.96248 38.94424 40.96248 36.94424 32.96948 36.94424 32.96948 46.94424 40.96248 46.94424 40.96248 44.94424 34.96948 44.94424 34.96948 38.94424"></polygon>
            <path d="M45.03273,65.08081 L63.03273,65.08081 C64.13684,65.0797 65.03163,64.18492 65.03273,63.08081 L65.03273,36.92944 C65.03162,35.82533 64.13684,34.93054 63.03273,34.92944 L45.03273,34.92944 C43.92862,34.93054 43.03383,35.82533 43.03273,36.92944 L43.03273,63.08081 C43.03383,64.18492 43.92862,65.07971 45.03273,65.08081 Z M45.03273,36.92944 L63.03273,36.92944 L63.03273,63.08081 L45.03273,63.08081 L45.03127,36.92944 L45.03273,36.92944 Z" id="Shape"></path>
        </g>
    </g>
</svg>