<?xml version="1.0" encoding="UTF-8"?>
<svg width="74px" height="113px" viewBox="0 0 74 113" version="1.1" xmlns="http://www.w3.org/2000/svg" xmlns:xlink="http://www.w3.org/1999/xlink">
    <!-- Generator: Sketch 43.2 (39069) - http://www.bohemiancoding.com/sketch -->
    <title>Group</title>
    <desc>Created with Sketch.</desc>
    <defs></defs>
    <g id="Page-1" stroke="none" stroke-width="1" fill="none" fill-rule="evenodd">
        <g id="Group" transform="translate(0.000000, -1.000000)" fill-rule="nonzero" fill="#FFFFFF">
            <path d="M1.56409091,20.4361765 L1.67509091,20.4328235 C2.25814462,20.3712388 2.68105531,19.8506574 2.62027273,19.2693529 C1.80290909,11.5659706 3.10295455,6.31358824 6.28327273,4.48288235 C10.3835455,2.12408824 17.2520909,4.91038235 24.2114545,11.7570882 C24.6294337,12.1667942 25.3014645,12.1611648 25.7124773,11.7445147 C26.1234901,11.3278646 26.1178428,10.6579707 25.6998636,10.2482647 C17.9180909,2.5935 10.2624545,-0.251470588 5.22372727,2.65385294 C1.21595455,4.96067647 -0.415409091,10.7830588 0.509590909,19.494 C0.567155357,20.0304978 1.0211304,20.4374871 1.56240909,20.4378529 L1.56409091,20.4361765 Z M72.7806818,101.225294 C72.5003416,101.205951 72.223775,101.298412 72.0118244,101.482336 C71.7998739,101.66626 71.6699014,101.92658 71.6505,102.206029 C71.3444091,106.564853 70.0544545,109.429941 67.8159545,110.719147 C63.0564091,113.4585 54.3075909,109.1265 46.0465,99.9461471 C45.7935397,99.6646428 45.409135,99.5390457 45.0380874,99.616667 C44.6670397,99.6942883 44.3657201,99.9633355 44.2476328,100.322461 C44.1295454,100.681587 44.2126306,101.076231 44.4655909,101.357735 C51.5477273,109.228765 58.9258636,113.632853 64.5549091,113.632853 C66.1475909,113.632853 67.6057273,113.279118 68.8704545,112.549853 C71.7631818,110.885118 73.4063182,107.453382 73.7645455,102.351882 C73.7848641,102.072223 73.6924319,101.796037 73.5077404,101.584553 C73.323049,101.373069 73.0613577,101.24376 72.7806818,101.225294 L72.7806818,101.225294 Z" id="Shape"></path>
            <path d="M6.64318182,8.47120588 L6.82313636,8.23147059 L6.6415,8.47120588 M5.735,10.3941176 L5.846,10.0521176 L5.735,10.3957941 M6.34718182,8.92720588 L6.55404545,8.59191176 L6.34718182,8.92720588 M7.23518182,7.80061765 L7.45886364,7.61117647 L7.23518182,7.80061765 M6.92909091,8.11076471 L7.12081818,7.90791176 L6.92740909,8.10908824 M5.58531818,10.9540588 L5.68118182,10.5768529 L5.58531818,10.9540588 M5.90318182,9.88782353 L6.04613636,9.53241176 L5.90318182,9.88782353 M64.8122273,108.378794 L64.4994091,108.417353 L64.8122273,108.378794 M63.2548636,108.392206 L62.9016818,108.340235 L63.2548636,108.390529 M65.2461364,108.283235 L64.9736818,108.348618 L65.2461364,108.281559 M66.1795455,107.907706 L65.8028182,108.092118 L66.1778636,107.907706 M65.6766818,108.142412 L65.4008636,108.241324 L65.6766818,108.140735 M5.45245455,11.6011765 C5.48272727,11.4402353 5.51131818,11.2809706 5.54663636,11.1250588 C5.513,11.2809706 5.48272727,11.4419118 5.45245455,11.6011765 M6.54563636,23.8729412 L6.33204545,22.9441765 L6.54563636,23.8746176 M8.547,30.9040588 C8.4225929,30.5188127 8.29925909,30.133223 8.177,29.7472941 C8.29640909,30.1295294 8.42086364,30.5134412 8.547,30.9040588 M8.15009091,29.6601176 C8.03236364,29.2745294 7.91127273,28.8956471 7.79859091,28.5184412 C7.91295455,28.8956471 8.03068182,29.2762059 8.15177273,29.6584412 M62.7200455,108.306706 L62.3618182,108.226235 L62.7200455,108.306706 M48.2177273,97.9427647 C47.9654545,97.6812353 47.7148636,97.4163529 47.4609091,97.1464412 C47.7148636,97.4146765 47.9654545,97.6812353 48.2177273,97.9427647 M53.1673182,102.658676 C52.9503636,102.472588 52.7300455,102.281471 52.5114091,102.085324 C52.7300455,102.281471 52.9503636,102.470912 53.1673182,102.658676 M52.3667727,101.957912 L51.7058182,101.361088 C51.9295,101.560588 52.1498182,101.761765 52.3667727,101.957912 M49.0771364,98.8262647 C48.8315909,98.5747941 48.581,98.3216471 48.3320909,98.0617941 L49.0771364,98.8262647 M44.7296364,94.1338235 C44.4639091,93.8270294 44.1948182,93.5168824 43.9274091,93.2017059 C44.1931364,93.5168824 44.4622273,93.8270294 44.7296364,94.1338235 M16.3489545,9.09317647 C12.8205,6.86347059 9.90254545,6.15432353 7.91295455,7.29767647 L7.56145455,7.53070588 L7.91463636,7.29935294 C9.90254545,6.15432353 12.8205,6.86347059 16.3489545,9.09317647 M62.1835455,108.182647 L61.7731818,108.065294 L62.1835455,108.182647 M59.0570455,106.881706 C58.8804545,106.781118 58.7055455,106.685559 58.5289545,106.579941 C58.7055455,106.685559 58.8821364,106.784471 59.0570455,106.881706 M55.5033636,104.548059 C55.2847273,104.380412 55.056,104.209412 54.834,104.028353 C55.056,104.207735 55.2830455,104.380412 55.5033636,104.548059 M56.9312273,105.572382 C56.7512727,105.45 56.5662727,105.324265 56.3829545,105.191824 C56.5679545,105.324265 56.7529545,105.45 56.9312273,105.572382" id="Shape"></path>
            <path d="M43.9290909,93.2017059 C44.1931364,93.5168824 44.4622273,93.8270294 44.7296364,94.1338235 L44.7918636,94.2008824 C45.6680909,95.2050882 46.5359091,96.1623529 47.3869091,97.0676471 L47.4592273,97.1481176 L48.2177273,97.9444412 L48.3320909,98.0617941 C48.581,98.3216471 48.8315909,98.5764706 49.0771364,98.8262647 L49.1561818,98.9033824 C49.9802727,99.7365882 50.7959545,100.521176 51.5897727,101.253794 L51.7041364,101.359412 L52.3650909,101.956235 L52.5097273,102.083647 C52.7300455,102.279794 52.9503636,102.469235 53.1673182,102.657 L53.2749545,102.750882 C53.7879091,103.191794 54.2958182,103.605882 54.7919545,103.998176 L54.8306364,104.030029 C55.0543182,104.207735 55.2813636,104.380412 55.5,104.548059 L55.6547273,104.662059 L56.2063636,105.067765 L56.3812727,105.191824 C56.5662727,105.322588 56.7512727,105.448324 56.9295455,105.572382 L57.0741818,105.671294 C57.5299545,105.978088 57.9823636,106.264765 58.4213182,106.522941 L58.5255909,106.583294 C58.7021818,106.687235 58.8787727,106.784471 59.0536818,106.883382 L59.2302727,106.977265 C59.3816364,107.059412 59.533,107.136529 59.681,107.210294 L59.8676818,107.304176 C60.0190455,107.376265 60.1670455,107.446676 60.3150455,107.513735 L60.4731364,107.580794 C60.6699091,107.667971 60.8599545,107.748441 61.0516818,107.822206 L61.0584091,107.822206 C61.2518182,107.897647 61.4452273,107.964706 61.6335909,108.023382 L61.7715,108.066971 L62.1818636,108.184324 L62.3584545,108.227912 L62.7166818,108.308382 L62.8966364,108.341912 L63.2515,108.392206 L63.4062273,108.414 C63.5676818,108.430765 63.7224091,108.440824 63.8771364,108.445853 L63.8939545,108.445853 C64.0537273,108.449206 64.2084545,108.444176 64.3615,108.434118 L64.4960455,108.420706 L64.8088636,108.382147 L64.9703182,108.351971 L65.2427727,108.284912 L65.3975,108.244676 L65.6733182,108.144088 L65.8011364,108.093794 L66.1761818,107.909382 L66.1795455,107.907706 C69.4843182,106.004912 69.6289545,99.3241765 67.192,89.9007353 C66.851203,88.5894951 66.481111,87.2859946 66.082,85.9912059 C65.6498196,84.5910406 65.1905979,83.1993113 64.7045909,81.8167941 C64.5801364,81.4563529 64.4489545,81.0959118 64.3194545,80.7337941 C63.5715109,78.6727631 62.7774948,76.6286361 61.938,74.6029412 L63.6265455,73.6305882 C64.0733923,73.3730238 64.3489122,72.8978261 64.3497273,72.3832941 L64.3497273,42.7935882 C64.3492578,42.2789637 64.0736453,41.8036063 63.6265455,41.5462941 L59.7381818,39.3098824 L63.9090909,32.1077647 L67.0271818,9.36979412 C67.1279496,8.68444975 66.7968071,8.00763302 66.193,7.66482353 C65.5929678,7.3140419 64.8385362,7.36595213 64.2925455,7.79558824 L46.028,21.9617647 L41.9243636,29.0532353 L37.9216364,26.7514412 C37.4738528,26.4949276 36.9230563,26.4949276 36.4752727,26.7514412 L34.8035455,27.7137353 C28.0207727,18.9256765 21.5272727,12.3706765 16.3472727,9.09652941 C12.8188182,6.86682353 9.90086364,6.15767647 7.91127273,7.30270588 L7.55977273,7.53405882 L7.45886364,7.6095 L7.23518182,7.80061765 L7.12081818,7.90791176 L6.92740909,8.10908824 L6.82313636,8.23147059 L6.6415,8.47120588 L6.55404545,8.59191176 L6.34718182,8.92720588 L6.31354545,8.98588235 C6.23519584,9.12697352 6.16281412,9.27127667 6.09659091,9.41841176 L6.04613636,9.53241176 L5.90318182,9.88782353 L5.84768182,10.0521176 L5.73668182,10.3957941 L5.68286364,10.5768529 L5.587,10.9540588 L5.54831818,11.1267353 C5.51468182,11.2826471 5.48440909,11.4419118 5.45413636,11.6028529 L5.43731818,11.7034412 C5.40265931,11.9139557 5.37293908,12.1252486 5.34818182,12.3371471 L5.34313636,12.3941471 C5.31851742,12.5908388 5.29944929,12.7881814 5.28595455,12.9859412 L5.27586364,13.1619706 C5.26409091,13.3296176 5.25568182,13.5006176 5.24895455,13.6749706 L5.24222727,13.8795 C5.23743099,14.0571647 5.23518834,14.2348889 5.2355,14.4126176 L5.2355,14.6054118 C5.2355,14.8149706 5.24054545,15.0278824 5.24727273,15.2458235 L5.25063636,15.3547941 C5.27081818,15.8812059 5.30613636,16.4327647 5.35827273,16.9977353 L5.37004545,17.1150882 C5.39359091,17.3581765 5.4205,17.6012647 5.44740909,17.8493824 L5.47095455,18.0321176 C5.50122727,18.2718529 5.52981818,18.5099118 5.56513636,18.753 L5.58868182,18.9290294 L5.71481818,19.7505 L5.73163636,19.8343235 C5.88636364,20.7899118 6.07809091,21.7890882 6.3085,22.8251471 L6.33540909,22.9425 L6.549,23.8729412 L6.58263636,24.0053824 L6.82818182,25.0079118 L6.84163636,25.0615588 C7.12418182,26.1680294 7.44204545,27.3147353 7.79522727,28.4932941 L7.80195455,28.5184412 C7.91463636,28.8956471 8.03404545,29.2762059 8.15513636,29.6584412 L8.18036364,29.7489706 C8.29977273,30.1312059 8.42422727,30.5151176 8.55036364,30.9040588 L8.56213636,30.9375882 C8.83122727,31.7573824 9.11377273,32.5922647 9.41145455,33.4405588 C9.57019418,33.8891289 9.92080702,34.2441147 10.3682803,34.4093186 C10.8157536,34.5745225 11.3137504,34.5328371 11.7273182,34.2955588 L11.7609545,34.2754412 C12.4281839,33.8884304 12.7248297,33.0829929 12.4673182,32.3575588 C11.7668637,30.3725045 11.1258074,28.3671175 10.545,26.3440588 C7.19145455,14.5366765 8.73536364,10.5584118 9.53759091,10.0973824 C10.3415,9.63467647 14.5695909,10.2901765 23.1519091,19.0882941 C26.0194091,22.0305 28.9895,25.4823529 31.9814545,29.3365588 L30.0978182,30.4195588 L30.0608182,30.3692647 L29.7379091,29.9501471 L29.5495455,29.7037059 L29.2131818,29.2745294 L29.0399545,29.0515588 C28.9188636,28.8956471 28.7960909,28.7430882 28.675,28.5905294 L28.5370909,28.4161765 L28.1065455,27.8797059 L28.0392727,27.7942059 C27.71095,27.3898702 27.3801864,26.9875099 27.047,26.5871471 L26.9494545,26.4697941 C26.8199545,26.3172353 26.6938182,26.163 26.5643182,26.0154706 L26.4230455,25.8478235 L26.0900455,25.4605588 L25.9269091,25.2711176 L25.6241818,24.9240882 L25.4492727,24.7262647 L25.1633636,24.4010294 L24.9867727,24.2048824 L24.7075909,23.8964118 L24.531,23.7036176 L24.2585455,23.4102353 L24.0785909,23.2191176 L23.8179091,22.9408235 L23.643,22.7564118 L23.3856818,22.4915294 L23.2107727,22.3138235 L22.9585,22.0556471 L22.792,21.888 L22.5363636,21.6398824 L22.3782727,21.4839706 L22.1226364,21.2392059 L21.9712727,21.0967059 L21.7122727,20.8552941 L21.5777273,20.7295588 L21.2951818,20.4780882 L21.1892273,20.3825294 L20.8108182,20.0556176 L20.4357727,19.7421176 L20.3651364,19.6851176 L20.0758636,19.4554412 L19.9598182,19.3665882 L19.7260455,19.1905588 L19.5965455,19.095 L19.388,18.9441176 L19.2534545,18.8519118 L19.0583636,18.7211471 L18.9238182,18.6322941 L18.7388182,18.5182941 L18.6042727,18.4344706 L18.4276818,18.3372353 L18.2948182,18.2634706 L18.13,18.1762941 L18.0005,18.1125882 L17.8390455,18.0371471 L17.7129091,17.9835 L17.5615455,17.9248235 L17.4438182,17.8795588 L17.2958182,17.8292647 L17.1797727,17.7957353 L17.0401818,17.7605294 L16.9308636,17.7353824 L16.7963182,17.7119118 L16.6920455,17.6985 L16.5575,17.6884412 L16.465,17.6850882 L16.4532273,17.6850882 L16.3489545,17.6884412 L16.2497273,17.6951471 L16.1353636,17.7152647 L16.0445455,17.7320294 L15.9268182,17.7689118 L15.8494545,17.7923824 L15.6863182,17.8711765 L15.6745455,17.8762059 L15.6711818,17.8795588 C15.0354545,18.2450294 14.7192727,19.1151176 14.6957273,20.4143824 L14.6957273,20.7949412 C14.7024545,21.1537059 14.7310455,21.5392941 14.7798182,21.9517059 C15.1515,25.2929118 16.7643636,30.4044706 19.3627727,36.6007059 L10.7720455,41.5429412 C10.3249456,41.8002534 10.0493331,42.2756107 10.0488636,42.7902353 L10.0488636,72.3799412 C10.0487325,72.8951648 10.3244255,73.3713 10.7720455,73.6289118 L14.7747727,75.9290294 L3.14331818,96.0081176 C1.35674535,99.095624 2.41824421,103.0422 5.51468182,104.824676 L12.1191818,108.625235 C15.2147751,110.405401 19.1718908,109.348923 20.9605,106.264765 L32.5902727,86.1856765 L36.4786364,88.4220882 C36.9259561,88.6803283 37.4776802,88.6803283 37.925,88.4220882 L46.5308636,83.4714706 L46.7932273,83.8151471 L47.0068182,84.0934412 L47.3196364,84.4907647 L47.5214545,84.7422353 L47.8443636,85.158 L48.0192727,85.3792941 L48.3909545,85.8403235 L48.5187727,86.0012647 L49.0149091,86.6098235 L49.025,86.6198824 C49.1830909,86.8160294 49.3445455,87.0054706 49.5009545,87.1965882 L49.9769091,87.7665882 L50.1635909,87.9845294 L50.4495,88.3231765 L50.6462727,88.5461471 L50.9187273,88.8613235 L51.1155,89.0826176 L51.3778636,89.3810294 L51.5796818,89.604 L51.8336364,89.8873235 L52.0304091,90.1035882 L52.2793182,90.3718235 L52.4727273,90.5830588 L52.7165909,90.8429118 L52.9133636,91.0440882 L53.1505,91.2922059 L53.3405455,91.4866765 L53.5776818,91.7247353 L53.7626818,91.9091471 L53.9947727,92.1405 L54.1747273,92.3165294 L54.4118636,92.5428529 L54.5800455,92.7004412 L54.8205455,92.9267647 L54.9752727,93.0675882 L55.2309091,93.2972647 L55.3620909,93.4146176 L55.6816364,93.6929118 L55.7388182,93.7432059 L56.1105,94.05 L56.203,94.1237647 L56.4687273,94.3383529 L56.5965455,94.4372647 L56.8168636,94.6049118 L56.9581364,94.7055 L57.1599545,94.8513529 L57.2995455,94.9469118 L57.4862273,95.0743235 L57.6275,95.1665294 L57.8074545,95.2771765 L57.9453636,95.361 L58.1169091,95.4599118 L58.2514545,95.5336765 L58.4196364,95.6208529 L58.5508182,95.6845588 L58.7055455,95.7583235 L58.8333636,95.8119706 L58.9847273,95.874 L59.1058182,95.9192647 L59.2504545,95.9662059 L59.3648182,95.9997353 L59.5094545,96.0366176 L59.6137273,96.0600882 L59.755,96.0852353 L59.8559091,96.0986471 L59.9921364,96.1087059 L60.0812727,96.1120588 L60.0913636,96.1120588 L60.2023636,96.1070294 L60.2982273,96.102 L60.4193182,96.0802059 L60.5034091,96.0634412 L60.6295455,96.0248824 L60.6917727,96.0047647 L60.8633182,95.9209412 L60.8700455,95.9192647 L60.8767727,95.9159118 L60.8801364,95.9125588 C61.3359091,95.6443235 61.6285455,95.1128824 61.7630909,94.3484118 C61.7967273,94.1572941 61.8219545,93.9460588 61.8354091,93.7264412 C61.8488636,93.5034706 61.8522273,93.2670882 61.8488636,93.0156176 C61.839529,92.622828 61.8120301,92.2306762 61.7664545,91.8404118 C61.5209091,89.6492647 60.7455909,86.7020294 59.5060909,83.1881471 C59.1649064,82.2122053 58.80606,81.2424882 58.4297273,80.2794706 C58.2300601,79.7658588 58.025992,79.2539577 57.8175455,78.7438235 C57.7133362,78.4791394 57.606817,78.2153647 57.498,77.9525294 C57.4104237,77.738972 57.321285,77.5260545 57.2305909,77.3137941 L59.1142273,76.2307941 C60.9474091,80.6969118 62.4442273,84.9467647 63.5542273,88.8596471 C66.9044091,100.667029 65.3638636,104.645294 64.5633182,105.108 C63.7577273,105.570706 59.5313182,104.913529 50.9473182,96.1137353 C49.3484775,94.4653326 47.8037544,92.7656134 46.3155909,91.0172647 C45.8423652,90.4637064 45.0455093,90.314902 44.4033636,90.6601765 C43.9738216,90.8930782 43.6678142,91.3014435 43.5656469,91.778105 C43.4634795,92.2547665 43.5753533,92.7521315 43.8719091,93.1396765 L43.8752727,93.1463824 L43.9274091,93.2017059 L43.9290909,93.2017059 Z M56.9312273,37.6887353 L51.7478636,34.7079706 L54.9096818,29.2560882 L60.0896818,32.2368529 L56.9312273,37.6887353 Z M57.6846818,17.0145 L62.3433182,19.6968529 L61.0584091,29.0616176 L50.2056364,22.8167647 L57.6846818,17.0145 Z M49.9146818,33.6484412 L44.7296364,30.6693529 L47.8864091,25.2141176 L53.0697727,28.1965588 L49.9146818,33.6484412 Z M20.1179091,32.8135588 C18.4529091,28.5301765 17.6019091,25.5712059 17.1865,23.5510588 C19.4905909,25.7623235 22.2824091,29.0482059 25.3567727,33.1488529 L21.2144545,35.5361471 C20.8392743,34.6325154 20.4737386,33.7249347 20.1179091,32.8135588 L20.1179091,32.8135588 Z M17.5783636,77.5451471 L22.7617273,80.5275882 L15.8662727,92.4305294 L10.6862727,89.4497647 L17.5783636,77.5451471 L17.5783636,77.5451471 Z M18.1518636,104.645294 C17.2589934,106.184439 15.2846189,106.712465 13.7387727,105.825529 L7.13259091,102.019941 C5.59033631,101.129352 5.06095957,99.1632437 5.94859091,97.6225588 L9.06331818,92.2461176 L21.2665909,99.2671765 L18.1518636,104.645294 L18.1518636,104.645294 Z M22.8861818,96.4708235 L17.7028182,93.4900588 L24.5982727,81.5871176 L29.7799545,84.5662059 L22.8861818,96.4691471 L22.8861818,96.4708235 Z M48.3825455,82.4035588 L52.5500909,80.0045294 C54.5968636,84.7221176 56.0785455,88.7976176 56.8824545,91.9342941 C55.3250909,90.5763529 53.1219091,88.3365882 50.1165,84.6114706 C49.5301152,83.881657 48.951537,83.1456447 48.3808636,82.4035588 L48.3825455,82.4035588 Z M37.2001364,81.2635588 L16.6331818,69.4226471 L16.6331818,63.8802353 L43.6768182,48.3142059 L37.2018182,44.5857353 L16.6331818,56.4249706 L16.6331818,45.7425 L37.2018182,33.9032647 L57.7704545,45.7425 L57.7704545,51.2865882 L30.7268182,66.8526176 L37.2018182,70.5794118 L57.7704545,58.7401765 L57.7704545,69.4226471 L37.2018182,81.2618824 L37.2001364,81.2635588 Z M17.5581818,17.9248235 L17.4404545,17.8795588 L17.5581818,17.9248235 L17.5581818,17.9248235 Z M18.1266364,18.1762941 L17.9971364,18.1125882 L18.1266364,18.1762941 L18.1266364,18.1762941 Z M17.0368182,17.7588529 L16.9275,17.7337059 L17.0368182,17.7588529 L17.0368182,17.7588529 Z M17.8356818,18.0371471 L17.7095455,17.9835 L17.8356818,18.0371471 L17.8356818,18.0371471 Z" id="Shape"></path>
            <path d="M18.4243182,18.3372353 L18.2914545,18.2634706 L18.426,18.3372353 M17.2924545,17.8292647 L17.1764091,17.7940588 L17.2941364,17.8275882 M29.2064545,29.2762059 L29.0332273,29.0532353 L29.2064545,29.2762059 M25.6208182,24.9257647 L25.4459091,24.7279412 L25.6208182,24.9257647 M18.7354545,18.5166176 L18.5975455,18.4327941 L18.7337727,18.5166176 M25.16,24.4010294 L24.9834091,24.2048824 L25.1583182,24.4010294 M26.5609545,26.0171471 L26.4196818,25.8495 L26.5609545,26.0171471 M28.1031818,27.8830588 L28.0359091,27.7958824 L28.1031818,27.8830588 M27.0436364,26.5888235 L26.9444091,26.4748235 L27.0419545,26.5905 M29.7345455,29.9551765 L29.5445,29.7070588 L29.7328636,29.9551765 M30.0927727,30.4229118 L30.0557727,30.3726176 L30.0927727,30.4229118 M28.6699545,28.5922059 L28.5320455,28.4178529 L28.6699545,28.5922059 M24.2585455,23.4102353 L24.0785909,23.2191176 L24.2585455,23.4102353 M26.0866818,25.4622353 L25.9235455,25.2727941 L26.0866818,25.4622353 M23.8162273,22.9408235 L23.6413182,22.7564118 L23.8162273,22.9408235 M19.7226818,19.1888824 L19.5931818,19.0933235 L19.7226818,19.1888824 M19.055,18.7194706 L18.9204545,18.6306176 L19.055,18.7194706 M20.4340909,19.7404412 L20.3617727,19.6834412 L20.4324091,19.7404412 M19.3846364,18.9424412 L19.2500909,18.8502353 L19.3846364,18.9424412 M20.0725,19.4537647 L19.9564545,19.3649118 L20.0741818,19.4537647 M22.533,21.6382059 L22.3749091,21.4822941 L22.533,21.6382059 M22.1192727,21.2358529 L21.9679091,21.0933529 L22.1192727,21.2358529 M21.7089091,20.8536176 L21.5743636,20.7278824 L21.7089091,20.8536176 M21.2918182,20.4747353 L21.1858636,20.3791765 L21.2918182,20.4747353 M23.3823182,22.4898529 L23.2074091,22.3121471 L23.3823182,22.4898529 M58.4196364,95.6158235 L58.5508182,95.6795294 L58.4196364,95.6158235 M58.1169091,95.4565588 L58.2514545,95.5303235 L58.1169091,95.4565588 M55.6799545,93.6929118 L55.7388182,93.7432059 L55.6799545,93.6929118 M58.7055455,95.7549706 L58.8333636,95.8086176 L58.7055455,95.7549706 M59.2504545,95.9645294 L59.3648182,95.9980588 L59.2504545,95.9645294 M58.9847273,95.8706471 L59.1058182,95.9159118 L58.9847273,95.8706471 M57.1582727,94.848 L57.2995455,94.9435588 L57.1582727,94.848 M56.1105,94.05 L56.203,94.1237647 L56.1105,94.05 M56.4687273,94.3383529 L56.5965455,94.4372647 L56.4687273,94.3366765 M16.7895909,17.7119118 L16.6886818,17.6985 L16.7895909,17.7119118 M59.5111364,96.0349412 L59.6154091,96.0584118 L59.5111364,96.0349412 M57.4862273,95.0709706 L57.6275,95.1631765 L57.4862273,95.0709706 M57.8091364,95.2738235 L57.9470455,95.3576471 L57.8091364,95.2738235 M60.0812727,96.1070294 L59.9921364,96.1036765 L60.0812727,96.1070294 M61.7630909,94.3467353 C61.6285455,95.1112059 61.3359091,95.6409706 60.8801364,95.9108824 L60.8767727,95.9142353 C61.3375909,95.6443235 61.6285455,95.1128824 61.7630909,94.3467353 M53.7626818,91.9125 L53.5793636,91.7264118 L53.7643636,91.9108235 M60.6312273,96.0215294 L60.6934545,96.0014118 L60.6312273,96.0215294 M60.421,96.0768529 L60.5050909,96.0600882 L60.421,96.0768529 M60.2040455,96.1036765 L60.2999091,96.0986471 L60.2040455,96.1036765 M59.7566818,96.0818824 L59.8575909,96.0952941 L59.7566818,96.0818824 M56.8168636,94.6032353 L56.9581364,94.7038235 L56.8168636,94.6032353 M46.7915455,83.8134706 L47.0051364,84.0917647 L46.7915455,83.8134706 M22.7903182,21.888 L22.9551364,22.0539706 L22.7903182,21.8863235 M14.6940455,20.4127059 C14.7192727,19.1151176 15.0354545,18.2433529 15.6711818,17.8778824 L15.6711818,17.8762059 C15.0354545,18.2433529 14.7192727,19.1151176 14.6957273,20.4127059 M16.4616364,17.6850882 L16.5541364,17.6884412 L16.4616364,17.6850882 M47.8426818,85.158 L48.0175909,85.3792941 L47.8426818,85.158 M48.3875909,85.8403235 L48.5154091,86.0012647 L48.3875909,85.8403235 M47.3179545,84.4907647 L47.5197727,84.7422353 L47.3179545,84.4907647 M16.132,17.7152647 L16.0411818,17.7320294 L16.132,17.7152647 M16.3472727,17.6867647 L16.2463636,17.6951471 L16.3472727,17.6884412 M15.6745455,17.8745294 L15.6863182,17.8695 L15.6745455,17.8745294 M15.9234545,17.7689118 L15.8494545,17.7923824 L15.9234545,17.7689118 M54.4118636,92.5411765 L54.5800455,92.7004412 L54.4118636,92.5428529 M52.7182727,90.8429118 L52.9150455,91.0440882 L52.7182727,90.8429118 M52.281,90.3735 L52.4744091,90.5830588 L52.281,90.3735 M51.8336364,89.8873235 L52.0304091,90.1035882 L51.8336364,89.8856471 M53.9947727,92.1388235 L54.1747273,92.3165294 L53.9947727,92.1405 M55.2309091,93.2955882 L55.3620909,93.4129412 L55.2309091,93.2955882 M54.8205455,92.9267647 L54.9752727,93.0675882 L54.8205455,92.9267647 M50.9170455,88.8613235 L51.1138182,89.0826176 L50.9170455,88.8613235 M51.3795455,89.3810294 L51.578,89.604 L51.3778636,89.3810294 M49.4975909,87.1965882 L49.6455909,87.3709412 L49.4975909,87.1965882 M49.9752273,87.7682647 L50.1619091,87.9845294 L49.9769091,87.7665882 M49.0115455,86.6098235 L49.0216364,86.6198824 L49.0115455,86.6098235 M50.4478182,88.3231765 L50.6445909,88.5461471 L50.4478182,88.3231765 M53.1505,91.2922059 L53.3405455,91.4866765 L53.1505,91.2922059 M5.91663636,29.1705882 C5.92080563,28.7661923 5.70198186,28.3921425 5.34684668,28.1966095 C4.99171151,28.0010765 4.55757045,28.0156119 4.21639775,28.234458 C3.87522505,28.4533041 3.68207321,28.8411472 3.71345455,29.2443529 C3.75900014,29.8309887 4.25968377,30.2779699 4.84963283,30.2586667 C5.43958188,30.2393635 5.90978204,29.760615 5.91663636,29.1722647 M27.9249091,14.6272059 C28.325237,14.622613 28.691757,14.4025226 28.8829721,14.0519018 C29.0741871,13.7012809 29.0601816,13.2749843 28.8463625,12.9375859 C28.6325433,12.6001875 28.2523625,12.4044734 27.8525909,12.426 C27.252357,12.458321 26.7881547,12.9630132 26.8078301,13.5618899 C26.8275056,14.1607666 27.3238399,14.6341018 27.9249091,14.6272059 M42.4659091,96.6636176 C42.0723486,96.6770939 41.7158961,96.8988409 41.5308238,97.2453288 C41.3457516,97.5918166 41.3601765,98.0104054 41.5686647,98.343417 C41.777153,98.6764285 42.1480304,98.8732704 42.5415909,98.8597941 C43.1499828,98.8389616 43.6262399,98.3304427 43.6053409,97.7239853 C43.584442,97.1175279 43.074301,96.6427851 42.4659091,96.6636176 M72.0154545,95.2017353 C70.9784019,95.2359932 70.1655647,96.1017889 70.1999319,97.1355441 C70.234299,98.1692993 71.1028564,98.979552 72.1399091,98.9452941 C73.1769618,98.9110362 73.989799,98.0452405 73.9554318,97.0114853 C73.9210646,95.9777301 73.0525072,95.1674774 72.0154545,95.2017353 M70.6531818,93.2402647 C71.0473432,93.2279863 71.404992,93.0070267 71.5914054,92.6606191 C71.7778188,92.3142115 71.7646761,91.8949836 71.5569281,91.5608544 C71.3491801,91.2267252 70.9783887,91.0284569 70.5842273,91.0407353 C69.9749066,91.059716 69.4963905,91.5674844 69.5154318,92.1748676 C69.5344731,92.7822509 70.0438611,93.2592454 70.6531818,93.2402647" id="Shape"></path>
        </g>
    </g>
</svg>