<?xml version="1.0" encoding="utf-8"?>
<!-- Generator: Adobe Illustrator 20.1.0, SVG Export Plug-In . SVG Version: 6.00 Build 0)  -->
<svg version="1.1" id="d0cdf977-5cd0-4ec4-a4de-be710f1d8672"
	 xmlns="http://www.w3.org/2000/svg" xmlns:xlink="http://www.w3.org/1999/xlink" x="0px" y="0px" viewBox="0 0 64 64"
	 style="enable-background:new 0 0 64 64;" xml:space="preserve">
<style type="text/css">
	.st0{clip-path:url(#SVGID_2_);}
</style>
<g>
	<defs>
		<rect id="SVGID_1_" width="64" height="64"/>
	</defs>
	<clipPath id="SVGID_2_">
		<use xlink:href="#SVGID_1_"  style="overflow:visible;"/>
	</clipPath>
	<title>sq3</title>
	<g class="st0">
		<path d="M-0.02977,50.29467v3.63477c0.0011,1.10411,0.89589,1.9989,2,2h21.05725l-0.0072,5.999h-3.21655v2h20.21582v-2h-0.01831
			l-0.01294-7.835h-0.01807v-0.164h-38v-3.62909l37.99707,0.10712l0.00586-2L9.01363,48.32019l0.04585-31.75257h0.00256v-1.78827
			L9.08059,1.92016l44.0293,0.01855l-0.06982,29.9873l2,0.00488l0.03589-15.36328h5.8938v15.36427h2V16.56762
			c-0.00111-1.10411-0.89589-1.9989-2-2h-5.88918l0.03418-14.62793L7.08348-0.08081L7.0623,14.56763H1.9702
			c-1.10411,0.0011-1.9989,0.89589-2,2v32.72704l-0.00293,1H-0.02977z M25.02023,61.92846l0.0072-5.999h12.96392l0.00989,5.999
			H25.02023z M7.05948,16.56762L7.01364,48.31451l-5.04341-0.01427V16.56762H7.05948z"/>
		<rect x="11.08449" y="7.92944" width="40.0254" height="2"/>
		<circle cx="11.98146" cy="4.92993" r="1"/>
		<circle cx="15.98146" cy="4.92993" r="1"/>
		<circle cx="19.98146" cy="4.92993" r="1"/>
		<rect x="23.92091" y="3.92944" width="27.03955" height="2"/>
		<path d="M60.05373,37.88794H46.02199v6.083h14.03174V37.88794z M58.05373,41.97094H48.02199v-2.083h10.03175V41.97094z"/>
		<path d="M60.05373,45.92944H46.02199v10.08594h14.03174V45.92944z M58.05373,54.01538H48.02199v-6.08594h10.03175V54.01538z"/>
		<path d="M53.09328,57.88794h-0.12354c-0.55228,0-1,0.44772-1,1s0.44772,1,1,1h0.12354c0.55228,0,1-0.44772,1-1
			S53.64556,57.88794,53.09328,57.88794z"/>
		<path d="M29.96925,11.92944h-18v10h18V11.92944z M27.96925,19.92944h-14v-6h14V19.92944z"/>
		<path d="M49.96925,21.92944v-10h-18v10H49.96925z M33.96925,13.92944h14v6h-14V13.92944z"/>
		<path d="M29.96925,23.93676h-18v10h18V23.93676z M27.96925,31.93676h-14v-6h14V31.93676z"/>
		<polygon points="47.96948,25.93724 47.96948,31.92824 49.96948,31.92824 49.96948,23.93724 31.96948,23.93724 31.96948,33.93724 
			39.80148,33.93724 39.80148,31.93724 33.96948,31.93724 33.96948,25.93724 		"/>
		<path d="M11.96925,45.94409h18v-10h-18V45.94409z M13.96925,37.94409h14v6h-14V37.94409z"/>
		<polygon points="39.96248,37.94424 39.96248,35.94424 31.96948,35.94424 31.96948,45.94424 39.96248,45.94424 39.96248,43.94424 
			33.96948,43.94424 33.96948,37.94424 		"/>
		<path d="M44.03273,64.08081h18c1.10411-0.00111,1.9989-0.89589,2-2V35.92944c-0.00111-1.10411-0.89589-1.9989-2-2h-18
			c-1.10411,0.0011-1.9989,0.89589-2,2v26.15137C42.03383,63.18492,42.92862,64.07971,44.03273,64.08081z M44.03273,35.92944h18
			v26.15137h-18l-0.00146-26.15137H44.03273z"/>
	</g>
</g>
</svg>
